<svg width="132" height="132" viewBox="0 0 132 132" fill="none" xmlns="http://www.w3.org/2000/svg">
<g clip-path="url(#clip0_2_2)">
<path d="M65.707 131.414C101.995 131.414 131.413 101.996 131.413 65.708C131.413 29.4196 101.995 0.0019989 65.707 0.0019989C29.4186 0.0019989 0.00100708 29.4196 0.00100708 65.708C0.00100708 101.996 29.4186 131.414 65.707 131.414Z" fill="#3C91E6"/>
<path d="M61.66 99.804L62.835 109.844L64.034 109.835L62.86 99.799L61.66 99.804Z" fill="#30302E"/>
<path d="M67.68 99.77L66.979 99.774L67.025 109.818L67.74 109.814L67.68 99.77Z" fill="#414042"/>
<path d="M66.485 99.776L66.547 109.819L67.025 109.818L66.979 99.774L66.485 99.776Z" fill="#30302E"/>
<path d="M71.304 99.749L70.253 109.8L71.451 109.791L72.503 99.741L71.304 99.749Z" fill="#414042"/>
<path fill-rule="evenodd" clip-rule="evenodd" d="M66.504 25.185C64.446 24.503 61.831 24.452 59.907 24.257C51.791 23.437 42.336 31.546 38.923 38.211C35.028 45.812 34.76 55.645 37.931 64.99C44.559 84.52 61.229 98.507 66.973 98.545L66.63 25.138C66.589 25.155 66.544 25.168 66.504 25.185Z" fill="#05D2A2"/>
<path fill-rule="evenodd" clip-rule="evenodd" d="M94.114 37.435C90.61 31.129 80.013 22.605 72.207 24.08C70.623 24.38 68.3 24.436 66.631 25.138L66.973 98.546C66.988 98.546 67.005 98.548 67.018 98.548C72.721 98.513 89.287 84.301 95.696 64.646C98.821 55.063 98.343 45.041 94.114 37.435Z" fill="#05D2A2"/>
<path fill-rule="evenodd" clip-rule="evenodd" d="M72.261 109.39L67.023 109.423L67.054 116.076L69.78 116.061C71.309 114.936 72.334 112.79 72.319 110.335C72.317 110.016 72.298 109.699 72.261 109.39Z" fill="#845104"/>
<path fill-rule="evenodd" clip-rule="evenodd" d="M62.361 109.451C62.331 109.758 62.314 110.073 62.316 110.394C62.33 112.852 63.38 114.985 64.922 116.089L67.055 116.075L67.024 109.422L62.361 109.451Z" fill="#845104"/>
<path fill-rule="evenodd" clip-rule="evenodd" d="M66.611 25.01C65.409 24.575 63.773 24.565 62.58 24.365C57.08 23.454 52.221 27.111 48.548 30.774C40.83 38.474 38.926 52.039 42.614 64.965C48.18 84.49 62.151 98.488 66.972 98.544L66.628 25.001C66.623 25.004 66.615 25.006 66.611 25.01Z" fill="#EDEDED"/>
<path fill-rule="evenodd" clip-rule="evenodd" d="M84.337 30.315C81.179 27.342 75.448 23.247 70.363 24.14C69.13 24.355 67.702 24.389 66.629 25.001L66.973 98.544C66.988 98.544 67.005 98.548 67.018 98.548C71.796 98.517 85.666 84.322 91.016 64.676C94.592 51.531 92.398 37.898 84.337 30.315Z" fill="white"/>
<path fill-rule="evenodd" clip-rule="evenodd" d="M80.419 32.034C77.905 27.854 72.301 22.76 67.574 24.296C67.241 24.403 66.926 24.56 66.627 24.755L66.972 98.541C66.987 98.541 67.004 98.548 67.017 98.548C70.392 98.527 80.169 84.356 83.913 64.715C86.226 52.596 85.106 39.822 80.419 32.034Z" fill="#05D2A2"/>
<path fill-rule="evenodd" clip-rule="evenodd" d="M66.529 24.815C66.135 24.615 65.75 24.462 65.369 24.378C60.741 23.368 55.661 27.521 52.98 31.955C48.251 39.779 47.228 52.689 49.713 64.923C53.677 84.433 63.554 98.442 66.972 98.541L66.627 24.755C66.594 24.776 66.56 24.792 66.529 24.815Z" fill="#05D2A2"/>
<path fill-rule="evenodd" clip-rule="evenodd" d="M63.31 25.982C59.147 31.102 57.921 48.508 59.414 64.864C61.187 84.279 65.469 98.271 66.973 98.534L66.625 24.207C65.46 24.209 64.276 24.791 63.31 25.982Z" fill="#EDEDED"/>
<path fill-rule="evenodd" clip-rule="evenodd" d="M74.216 64.773C75.509 48.416 74.053 31.333 69.864 25.957C68.961 24.797 67.801 24.206 66.625 24.207L66.973 98.534C66.988 98.537 67.005 98.548 67.018 98.548C68.477 98.537 72.66 84.4 74.216 64.773Z" fill="white"/>
<path fill-rule="evenodd" clip-rule="evenodd" d="M50.218 86.297L61.104 100.037L66.98 100L66.915 86.195L50.218 86.297Z" fill="#30302E"/>
<path fill-rule="evenodd" clip-rule="evenodd" d="M83.667 86.094L66.915 86.195L66.98 100L72.949 99.965L83.667 86.094Z" fill="#414042"/>
</g>
<defs>
<clipPath id="clip0_2_2">
<rect width="131.414" height="131.414" fill="white"/>
</clipPath>
</defs>
</svg>
